<svg xmlns="http://www.w3.org/2000/svg" width="400" height="129" viewBox="0 0 105.83333 34.131251"><path d="M148.428 146.592c.009 1.588 1.28 2.87 2.86 2.87a2.865 2.865 0 0 0 2.87-2.87v-7.914c0-1.58-1.282-2.86-2.87-2.86a2.86 2.86 0 0 0-2.86 2.86l.009 4.668s-.36 1.562-2.062 1.632c-1.702.063-6.326-2.334-8.02-6.756-.605-1.474-1.447-2.062-2.746-2.062-1.298 0-2.395.825-2.746 2.027-1.606 5.282-5.37 6.905-6.554 6.993-.913.087-1.536.684-1.536 1.5 0 .807.623 1.342 1.57 1.342 2.071 0 6.195-1.28 9.31-4.624 3.317 3.247 10.125 6.195 12.775 3.194M94.599 143.82c-.825 0-1.5-.676-1.5-1.5l.008-4.037c0-1.58 1.281-2.86 2.87-2.86a2.839 2.839 0 0 1 2.833 2.86v2.562h16.417c1.842 0 2.404-.404 2.992-.596.816-.255 1.728-.08 2.07.701.351.781-.052 1.562-.719 1.983-.667.43-2.158.86-4.343.86h-6.274v1.57l11.363.026c.825 0 1.491.676 1.491 1.5 0 .826-.666 1.501-1.491 1.501H92.634a1.5 1.5 0 1 1 0-3l10.713-.026v-1.57zM92.51 154.805c0-3.247 6.195-5.879 13.837-5.879 7.643 0 13.837 2.632 13.837 5.879 0 3.255-6.194 5.887-13.837 5.887-7.642 0-13.837-2.632-13.837-5.887m13.837 3.062c4.458 0 8.072-1.369 8.072-3.062 0-1.685-3.614-3.054-8.072-3.054-4.457 0-8.063 1.37-8.063 3.054 0 1.693 3.606 3.062 8.063 3.062M127.52 151.12c0-.825.666-1.492 1.5-1.492h23.698c.825 0 1.5.667 1.5 1.492v6.642c0 .824-.675 1.491-1.5 1.491H129.02c-.834 0-1.5-.667-1.5-1.491zm5.676 5.168h15.24v-3.738h-15.24zM68.39 165.106c11.047 0 19.997-7.634 19.997-17.049 0-9.423-8.95-17.056-19.997-17.056-11.046 0-20.005 7.633-20.005 17.056 0 9.415 8.959 17.049 20.005 17.049" style="fill:#fff;fill-opacity:1;fill-rule:nonzero;stroke:none;stroke-width:2.24617243" transform="translate(-48.385 -130.987)"/><path d="M49.816 148.057c0-8.747 8.318-15.837 18.574-15.837 10.249 0 18.566 7.09 18.566 15.837 0 8.74-8.317 15.829-18.566 15.829-10.256 0-18.574-7.09-18.574-15.829m18.574 2.685c3.256 0 5.897-3.808 5.897-8.493 0-4.685-2.641-8.485-5.897-8.485-3.264 0-5.905 3.8-5.905 8.485s2.641 8.493 5.905 8.493" style="fill:#e60013;fill-opacity:1;fill-rule:nonzero;stroke:none;stroke-width:2.24617243" transform="translate(-48.385 -130.987)"/></svg>