<svg width="1920" height="150" viewBox="0 0 1920 150" fill="none" xmlns="http://www.w3.org/2000/svg">
<path fill-rule="evenodd" clip-rule="evenodd" d="M1920 149.5H0V148.5H1920V149.5Z" fill="white"/>
<path fill-rule="evenodd" clip-rule="evenodd" d="M205.718 60.0933C197.612 56.513 188.472 56.0434 180.042 58.7739L176.887 59.7957C176.578 59.8957 176.396 60.2136 176.465 60.5307L181.703 84.4995L216.533 84.4995L215.894 84.4387L217.57 66.8441L218.566 66.9389L216.893 84.4995L230.137 84.4995L235.194 61.3591C235.288 60.9251 234.877 60.5519 234.454 60.6888L232.106 61.4493C223.442 64.2555 214.048 63.7728 205.718 60.0933ZM175.488 60.7442L180.679 84.4995H174.5C172.843 84.4995 171.5 85.8427 171.5 87.4995C171.5 88.2679 171.789 88.9688 172.264 89.4995H161.428C156.4 89.4995 151.86 92.5097 149.903 97.1413L141.302 117.5H130.5V121.5H141.302L149.903 141.858C151.86 146.489 156.4 149.5 161.428 149.5H249.572C254.6 149.5 259.139 146.489 261.096 141.858L269.698 121.5H280.5V117.5H269.698L261.096 97.1413C259.139 92.5097 254.6 89.4995 249.572 89.4995H239.736C240.211 88.9688 240.5 88.2679 240.5 87.4995C240.5 85.8427 239.157 84.4995 237.5 84.4995H231.16L236.171 61.5726C236.43 60.3845 235.303 59.3627 234.146 59.7374L231.798 60.4979C223.368 63.2285 214.228 62.7588 206.122 59.1785C197.791 55.499 188.397 55.0163 179.733 57.8226L176.579 58.8443C175.781 59.1028 175.309 59.9246 175.488 60.7442ZM174.5 85.4995H180.898L180.898 85.4995H230.942L237.5 85.4995C238.605 85.4995 239.5 86.3949 239.5 87.4995C239.5 88.6041 238.605 89.4995 237.5 89.4995H174.5C173.395 89.4995 172.5 88.6041 172.5 87.4995C172.5 86.3949 173.395 85.4995 174.5 85.4995ZM174.5 90.4995H161.428C156.802 90.4995 152.625 93.2691 150.825 97.5305L142 118.417V118.5H141.965L141.543 119.5L141.965 120.5H142V120.582L150.825 141.468C152.625 145.73 156.802 148.5 161.428 148.5H249.572C254.198 148.5 258.375 145.73 260.175 141.468L269 120.581V120.5H269.035L269.457 119.5L269.035 118.5H269V118.418L260.175 97.5305C258.375 93.2691 254.198 90.4995 249.572 90.4995H237.5H174.5ZM279.5 120.5H270.12L270.543 119.5L270.12 118.5H279.5V120.5ZM140.88 118.5L140.457 119.5L140.88 120.5H131.5V118.5H140.88ZM192.438 61.5149L195.37 82.4608L196.36 82.3222L193.428 61.3762L192.438 61.5149ZM155.984 141.459V96.9995H156.984V141.459H155.984ZM253.172 96.9995V141.459H254.172V96.9995H253.172Z" fill="white"/>
<path fill-rule="evenodd" clip-rule="evenodd" d="M429.5 70.0022C431.196 70.2449 432.5 71.7036 432.5 73.4668V79.9745C436.765 83.3636 439.5 88.5958 439.5 94.4668V143.865C439.5 146.978 436.977 149.501 433.865 149.501H408.135C405.023 149.501 402.5 146.978 402.5 143.865V94.4668C402.5 88.5958 405.235 83.3636 409.5 79.9745L409.5 73.4668C409.5 71.7036 410.804 70.2449 412.5 70.0022L412.5 58.4668C412.5 57.0861 413.619 55.9668 415 55.9668H427C428.381 55.9668 429.5 57.0861 429.5 58.4668L429.5 70.0022ZM428.5 69.9668L428.5 58.4668C428.5 57.6384 427.828 56.9668 427 56.9668L415 56.9668C414.172 56.9668 413.5 57.6384 413.5 58.4668L413.5 69.9668L428.5 69.9668ZM431.5 80.4668V80.4655C428.575 78.2686 424.94 76.9668 421 76.9668C417.06 76.9668 413.425 78.2686 410.5 80.4655V80.4668H410.498C406.249 83.6596 403.5 88.7422 403.5 94.4668V99.9668H405C406.933 99.9668 408.5 101.534 408.5 103.467V119.467C408.5 121.4 406.933 122.967 405 122.967H403.5V143.865C403.5 146.425 405.575 148.501 408.135 148.501H433.865C436.425 148.501 438.5 146.425 438.5 143.865V122.967H414C412.067 122.967 410.5 121.4 410.5 119.467V103.467C410.5 101.534 412.067 99.9668 414 99.9668H438.5V94.4668C438.5 88.7422 435.751 83.6596 431.502 80.4668H431.5ZM403.5 121.967V100.967H405C406.381 100.967 407.5 102.086 407.5 103.467V119.467C407.5 120.848 406.381 121.967 405 121.967H403.5ZM438.5 100.967H414C412.619 100.967 411.5 102.086 411.5 103.467V119.467C411.5 120.848 412.619 121.967 414 121.967H438.5V100.967ZM410.5 73.4668L410.5 79.2332C413.483 77.1732 417.101 75.9668 421 75.9668C424.899 75.9668 428.517 77.1732 431.5 79.2332V73.4668C431.5 72.0861 430.381 70.9668 429 70.9668L413 70.9668C411.619 70.9668 410.5 72.0861 410.5 73.4668Z" fill="white"/>
<path fill-rule="evenodd" clip-rule="evenodd" d="M601.932 1.5C600.995 1.5 600.234 2.26023 600.234 3.19802C600.234 4.13178 600.988 4.8895 601.92 4.896L601.931 4.896L601.944 4.896C602.877 4.88957 603.63 4.13182 603.63 3.19802C603.63 2.26023 602.87 1.5 601.932 1.5ZM599.234 3.19802C599.234 3.8654 599.477 4.47619 599.878 4.9472C579.173 5.98252 562.571 22.5934 561.55 43.3024C561.481 44.7072 562.626 45.8267 564 45.8267H582.752C582.994 55.2811 590.077 63.0345 599.234 64.322V125.573C588.149 126.835 579.398 135.784 578.439 146.958C578.317 148.379 579.483 149.5 580.852 149.5H623.01C624.379 149.5 625.545 148.379 625.423 146.958C624.464 135.785 615.714 126.837 604.63 125.574V64.3211C613.785 63.031 620.864 55.2789 621.106 45.8267H639.861C641.235 45.8267 642.381 44.7072 642.312 43.3024C641.29 22.5945 624.69 5.98421 603.987 4.94735C604.388 4.47632 604.63 3.86548 604.63 3.19802C604.63 1.70794 603.422 0.5 601.932 0.5C600.442 0.5 599.234 1.70794 599.234 3.19802ZM603.63 64.4354C603.07 64.4846 602.503 64.5098 601.929 64.5098C601.358 64.5098 600.793 64.4848 600.234 64.4359V125.481C600.795 125.441 601.36 125.421 601.931 125.421C602.502 125.421 603.069 125.441 603.63 125.481V64.4354ZM620.106 45.8267C619.841 55.6378 611.804 63.5098 601.929 63.5098C592.054 63.5098 584.018 55.6378 583.753 45.8267H620.106ZM621.112 44.8267H639.861C640.697 44.8267 641.352 44.1532 641.313 43.3516C640.284 22.4982 623.055 5.90505 601.948 5.896L601.932 5.89604L601.917 5.896C580.809 5.90303 563.577 22.4969 562.549 43.3516C562.509 44.1532 563.165 44.8267 564 44.8267H582.746V44.8266H621.112V44.8267ZM565.714 59.5896L577.214 51.5896L577.785 52.4105L566.285 60.4105L565.714 59.5896ZM627.786 51.5896L639.286 59.5896L638.715 60.4105L627.215 52.4105L627.786 51.5896ZM584.617 75.6823L586.853 64.9225L587.724 65.0785L585.489 75.8383L584.617 75.6823ZM618.147 64.922L620.382 75.6818L619.51 75.8378L617.275 65.078L618.147 64.922ZM601.931 126.421C590.12 126.421 580.427 135.49 579.435 147.044C579.368 147.824 580.011 148.5 580.852 148.5H623.01C623.851 148.5 624.494 147.824 624.427 147.044C623.435 135.49 613.742 126.421 601.931 126.421Z" fill="white"/>
<path fill-rule="evenodd" clip-rule="evenodd" d="M992.359 28C992.359 23.3056 996.165 19.5 1000.86 19.5H1071.86C1076.55 19.5 1080.36 23.3056 1080.36 28V141C1080.36 145.694 1076.55 149.5 1071.86 149.5H1000.86C996.165 149.5 992.359 145.694 992.359 141V28ZM1000.86 20.5C996.717 20.5 993.359 23.8579 993.359 28V141C993.359 145.142 996.717 148.5 1000.86 148.5H1071.86C1076 148.5 1079.36 145.142 1079.36 141V28C1079.36 23.8579 1076 20.5 1071.86 20.5H1000.86Z" fill="white"/>
<path fill-rule="evenodd" clip-rule="evenodd" d="M1023.36 77V84C1023.36 85.3807 1024.48 86.5 1025.86 86.5H1046.86C1048.24 86.5 1049.36 85.3807 1049.36 84V77H1050.36V84C1050.36 85.933 1048.79 87.5 1046.86 87.5H1025.86C1023.93 87.5 1022.36 85.933 1022.36 84V77H1023.36Z" fill="white"/>
<path fill-rule="evenodd" clip-rule="evenodd" d="M1006.36 37V73C1006.36 74.3807 1007.48 75.5 1008.86 75.5H1063.86C1065.24 75.5 1066.36 74.3807 1066.36 73V37H1067.36V73C1067.36 74.933 1065.79 76.5 1063.86 76.5H1008.86C1006.93 76.5 1005.36 74.933 1005.36 73V37H1006.36Z" fill="white"/>
<path fill-rule="evenodd" clip-rule="evenodd" d="M1031.36 87V88C1031.36 89.3807 1032.48 90.5 1033.86 90.5H1038.86C1040.24 90.5 1041.36 89.3807 1041.36 88V87H1042.36V88C1042.36 89.933 1040.79 91.5 1038.86 91.5H1033.86C1031.93 91.5 1030.36 89.933 1030.36 88V87H1031.36Z" fill="white"/>
<path fill-rule="evenodd" clip-rule="evenodd" d="M1079.86 37H993.359V36H1079.86V37Z" fill="white"/>
<path fill-rule="evenodd" clip-rule="evenodd" d="M1079.86 137.5H993.359V136.5H1079.86V137.5Z" fill="white"/>
<path fill-rule="evenodd" clip-rule="evenodd" d="M1018.36 106.5H1054.36C1054.29 113.419 1052.8 119.622 1049.88 124.112C1046.9 128.688 1042.43 131.5 1036.36 131.5C1030.29 131.5 1025.82 128.688 1022.84 124.112C1019.92 119.622 1018.43 113.419 1018.36 106.5ZM1022 124.658C1025.15 129.492 1029.93 132.5 1036.36 132.5C1042.79 132.5 1047.57 129.492 1050.72 124.658C1053.85 119.845 1055.36 113.239 1055.36 106V105.5H1017.36V106C1017.36 113.239 1018.87 119.845 1022 124.658Z" fill="white"/>
<path fill-rule="evenodd" clip-rule="evenodd" d="M1057.27 121.749C1055.4 123.092 1053.19 123.623 1051.02 122.883L1050.7 123.83C1053.24 124.696 1055.78 124.049 1057.85 122.562C1059.93 121.079 1061.56 118.743 1062.34 116.143C1063.14 113.465 1062.25 111.094 1060.49 109.955C1058.71 108.804 1056.21 109.012 1054.01 111.141L1054.71 111.859C1056.64 109.987 1058.63 109.945 1059.95 110.795C1061.28 111.655 1062.08 113.535 1061.38 115.857C1060.66 118.257 1059.15 120.403 1057.27 121.749Z" fill="white"/>
<path fill-rule="evenodd" clip-rule="evenodd" d="M1474.55 43.7775C1475 39.6371 1478.5 36.5 1482.66 36.5H1532.16C1536.32 36.5 1539.82 39.6371 1540.27 43.7775L1546.71 103.128C1547.24 107.954 1543.46 112.167 1538.6 112.167H1476.22C1471.36 112.167 1467.58 107.954 1468.11 103.128L1474.55 43.7775ZM1482.66 37.5C1479.01 37.5 1475.94 40.2525 1475.55 43.8854L1469.1 103.236C1468.64 107.47 1471.96 111.167 1476.22 111.167H1538.6C1542.86 111.167 1546.18 107.47 1545.72 103.236L1539.27 43.8854C1538.88 40.2525 1535.81 37.5 1532.16 37.5H1482.66Z" fill="white"/>
<path fill-rule="evenodd" clip-rule="evenodd" d="M1466.52 131.05C1467.78 134.105 1470.75 136.099 1474.06 136.099H1540.76C1544.06 136.099 1547.04 134.105 1548.3 131.05L1551.85 122.434C1554.07 117.065 1550.12 111.167 1544.31 111.167H1470.51C1464.7 111.167 1460.75 117.065 1462.96 122.434L1466.52 131.05ZM1474.06 135.099C1471.16 135.099 1468.55 133.349 1467.44 130.669L1463.89 122.053C1461.95 117.342 1465.41 112.167 1470.51 112.167H1544.31C1549.41 112.167 1552.87 117.342 1550.93 122.053L1547.38 130.669C1546.27 133.349 1543.66 135.099 1540.76 135.099H1474.06Z" fill="white"/>
<path fill-rule="evenodd" clip-rule="evenodd" d="M1461.93 114.038C1458.52 114.038 1455.58 111.633 1454.91 108.29L1448.95 78.6144C1448.06 74.1834 1451.45 70.0466 1455.97 70.0466H1457.86C1458.76 70.0466 1459.64 70.2144 1460.48 70.5411L1471.33 74.7984L1471.69 73.8675L1460.84 69.6102C1459.89 69.2378 1458.88 69.0466 1457.86 69.0466H1455.97C1450.82 69.0466 1446.96 73.7613 1447.97 78.8114L1453.93 108.487C1454.7 112.297 1458.04 115.038 1461.93 115.038H1464.63V114.038H1461.93Z" fill="white"/>
<path fill-rule="evenodd" clip-rule="evenodd" d="M1552.89 114.038C1556.3 114.038 1559.23 111.633 1559.9 108.29L1565.86 78.6144C1566.75 74.1834 1563.37 70.0466 1558.85 70.0466H1556.96C1556.06 70.0466 1555.17 70.2144 1554.34 70.5411L1543.49 74.7984L1543.12 73.8675L1553.98 69.6102C1554.93 69.2378 1555.94 69.0466 1556.96 69.0466H1558.85C1564 69.0466 1567.86 73.7613 1566.85 78.8114L1560.88 108.487C1560.12 112.297 1556.77 115.038 1552.89 115.038H1550.19V114.038H1552.89Z" fill="white"/>
<path fill-rule="evenodd" clip-rule="evenodd" d="M1478.63 147.376C1478.67 148.56 1479.64 149.5 1480.83 149.5C1482.01 149.5 1482.98 148.56 1483.02 147.376L1483.39 135.614L1482.39 135.583L1482.02 147.345C1482 147.989 1481.47 148.5 1480.83 148.5C1480.18 148.5 1479.65 147.989 1479.63 147.345L1479.27 135.583L1478.27 135.614L1478.63 147.376Z" fill="white"/>
<path fill-rule="evenodd" clip-rule="evenodd" d="M1530.56 147.376C1530.6 148.56 1531.57 149.5 1532.75 149.5C1533.94 149.5 1534.91 148.56 1534.94 147.376L1535.31 135.614L1534.31 135.583L1533.94 147.345C1533.92 147.989 1533.4 148.5 1532.75 148.5C1532.11 148.5 1531.58 147.989 1531.56 147.345L1531.19 135.583L1530.19 135.614L1530.56 147.376Z" fill="white"/>
<path fill-rule="evenodd" clip-rule="evenodd" d="M1739.88 52.5C1749.92 52.5 1758.06 60.6409 1758.06 70.6832L1759.06 70.6832C1759.06 60.0886 1750.47 51.5 1739.88 51.5C1729.28 51.5 1720.7 60.0886 1720.7 70.6832L1721.7 70.6832C1721.7 60.6409 1729.84 52.5 1739.88 52.5Z" fill="white"/>
<path fill-rule="evenodd" clip-rule="evenodd" d="M1739.7 46.5C1752.94 46.5 1763.7 57.4595 1763.7 71L1764.7 71C1764.7 56.9263 1753.51 45.5 1739.7 45.5C1725.88 45.5 1714.7 56.9263 1714.7 71L1715.7 71C1715.7 57.4595 1726.45 46.5 1739.7 46.5Z" fill="white"/>
<path fill-rule="evenodd" clip-rule="evenodd" d="M1699.8 77.9191C1700.35 73.6773 1703.96 70.5 1708.24 70.5H1772.16C1776.43 70.5 1780.04 73.6773 1780.59 77.9191L1788.54 139.919C1789.19 145.001 1785.23 149.5 1780.1 149.5H1700.29C1695.16 149.5 1691.2 145.001 1691.86 139.919L1699.8 77.9191ZM1708.24 71.5C1704.46 71.5 1701.28 74.3035 1700.8 78.0463L1692.85 140.046C1692.27 144.53 1695.77 148.5 1700.29 148.5H1780.1C1784.62 148.5 1788.12 144.53 1787.54 140.046L1779.59 78.0463C1779.11 74.3035 1775.93 71.5 1772.16 71.5H1708.24Z" fill="white"/>
<path fill-rule="evenodd" clip-rule="evenodd" d="M1716.51 108.095C1717.06 112.33 1720.67 115.5 1724.94 115.5H1755.45C1759.72 115.5 1763.33 112.33 1763.88 108.095L1768.69 71.0644L1767.7 70.9356L1762.89 107.966C1762.4 111.703 1759.22 114.5 1755.45 114.5H1724.94C1721.17 114.5 1717.99 111.703 1717.5 107.966L1712.69 70.9356L1711.7 71.0644L1716.51 108.095Z" fill="white"/>
<path fill-rule="evenodd" clip-rule="evenodd" d="M1740.39 105.5C1739.46 105.5 1738.7 106.26 1738.7 107.198C1738.7 108.136 1739.46 108.896 1740.39 108.896C1741.33 108.896 1742.09 108.136 1742.09 107.198C1742.09 106.26 1741.33 105.5 1740.39 105.5ZM1737.7 107.198C1737.7 105.708 1738.9 104.5 1740.39 104.5C1741.88 104.5 1743.09 105.708 1743.09 107.198C1743.09 108.688 1741.88 109.896 1740.39 109.896C1738.9 109.896 1737.7 108.688 1737.7 107.198Z" fill="white"/>
<path fill-rule="evenodd" clip-rule="evenodd" d="M775.5 70.5V71V75.5H770.135C767.023 75.5 764.5 78.0229 764.5 81.1351V143.865C764.5 146.977 767.023 149.5 770.135 149.5H806.865C809.977 149.5 812.5 146.977 812.5 143.865V81.1351C812.5 78.0229 809.977 75.5 806.865 75.5H801.5V71V70.5V63.2095C801.5 61.1608 799.839 59.5 797.791 59.5H779.209C777.161 59.5 775.5 61.1608 775.5 63.2095V70.5ZM800.5 63.2095V70.5H776.5V63.2095C776.5 61.7131 777.713 60.5 779.209 60.5H797.791C799.287 60.5 800.5 61.7131 800.5 63.2095ZM776.5 75.5V71.5H800.5V75.5H776.5ZM765.5 81.1351C765.5 78.5752 767.575 76.5 770.135 76.5H806.865C809.425 76.5 811.5 78.5752 811.5 81.1351V143.865C811.5 146.425 809.425 148.5 806.865 148.5H770.135C767.575 148.5 765.5 146.425 765.5 143.865V81.1351ZM804.73 96.03C805.06 96.81 805.22 97.64 805.22 98.46V98.5V123.1C805.22 126.36 802.53 129.01 799.22 129.01C797.79 129.01 796.47 128.51 795.44 127.68C795.26 127.82 795.08 127.96 794.88 128.08C793.8 128.76 792.6 129.09 791.41 129.09C789.26 129.09 787.15 128.02 785.91 126.07L785 124.63V128.5C785 132.08 782.08 135 778.5 135C774.92 135 772 132.08 772 128.5V102.5C772 98.92 774.92 96 778.49 96.01C780.37 96.01 782.05 96.81 783.24 98.08C783.7 98.49 784.11 98.96 784.45 99.5L788.56 105.98L792.72 96.01C793.39 94.41 794.64 93.16 796.25 92.5C797.85 91.84 799.62 91.84 801.22 92.51C802.82 93.17 804.07 94.42 804.73 96.03ZM796.19 126.97C797.03 127.61 798.08 128 799.22 128V127.99C801.98 127.99 804.22 125.79 804.22 123.08V102.19L797.49 118.33C797.35 118.67 797.18 118.99 796.99 119.29C797.83 120.72 798.1 122.39 797.74 124.01C797.49 125.13 796.95 126.14 796.19 126.97ZM785 122.76L786.75 125.53L786.76 125.55C788.38 128.11 791.79 128.87 794.35 127.25C794.432 127.2 794.501 127.142 794.572 127.083L794.572 127.083C794.614 127.048 794.655 127.013 794.7 126.98L794.743 126.947L794.791 126.91L794.791 126.91C794.894 126.833 794.998 126.755 795.09 126.67C795.187 126.581 795.272 126.486 795.359 126.39L795.411 126.332L795.45 126.29C796.09 125.59 796.56 124.75 796.77 123.8C797.05 122.57 796.87 121.31 796.32 120.19C796.297 120.144 796.275 120.098 796.253 120.052C796.198 119.939 796.144 119.827 796.08 119.72C796.07 119.7 796.05 119.65 796.05 119.65L795.8 119.26L794.22 116.77L793.72 115.98L793.22 115.19L788.75 108.13L788.42 107.61L788.09 107.09L784.98 102.18C784.99 102.28 785 102.38 785 102.49V115.83V115.88V122.76ZM784 123.06V123.05V102.51C784 101.16 783.5 99.92 782.69 98.96C781.68 97.77 780.18 97.01 778.5 97.01H778.34C775.45 97.09 773.11 99.41 773.01 102.3C773 102.37 773 102.43 773 102.5V128.5C773 131.53 775.47 134 778.5 134C781.53 134 784 131.53 784 128.5V123.06ZM796.63 93.42C795.27 93.98 794.22 95.03 793.65 96.39V96.37L793.5 96.74L789.23 106.99L793.23 113.31L793.73 114.1L794.23 114.89L796.4 118.32C796.422 118.271 796.446 118.224 796.47 118.177L796.47 118.177C796.51 118.099 796.549 118.021 796.58 117.94L803.8 100.61C804.08 99.94 804.22 99.23 804.22 98.52C804.22 97.8 804.08 97.08 803.8 96.4C803.24 95.04 802.19 93.98 800.83 93.42C800.52 93.29 800.2 93.2 799.88 93.13C799.5 93.05 799.11 93 798.72 93C798.01 93 797.31 93.14 796.63 93.42ZM822.5 81.1351C822.5 78.0229 825.023 75.5 828.135 75.5H833.5V71V70.5V63.2095C833.5 61.1608 835.161 59.5 837.209 59.5H855.791C857.839 59.5 859.5 61.1608 859.5 63.2095V70.5V71V75.5H864.865C867.977 75.5 870.5 78.0229 870.5 81.1351V143.865C870.5 146.977 867.977 149.5 864.865 149.5H828.135C825.023 149.5 822.5 146.977 822.5 143.865V81.1351ZM858.5 70.5H834.5V63.2095C834.5 61.7131 835.713 60.5 837.209 60.5H855.791C857.287 60.5 858.5 61.7131 858.5 63.2095V70.5ZM858.5 75.5V71.5H834.5V75.5H858.5ZM828.135 76.5C825.575 76.5 823.5 78.5752 823.5 81.1351V143.865C823.5 146.425 825.575 148.5 828.135 148.5H864.865C867.425 148.5 869.5 146.425 869.5 143.865V81.1351C869.5 78.5752 867.425 76.5 864.865 76.5H828.135ZM854.6 113.28L854.45 113.52L854.44 113.53L860.49 123.07C862.41 126.1 861.51 130.12 858.48 132.04C857.4 132.72 856.2 133.05 855.01 133.05C852.86 133.05 850.75 131.98 849.51 130.03L846.75 125.67L843.99 130.03C842.75 131.98 840.64 133.05 838.49 133.05C837.3 133.05 836.1 132.72 835.02 132.04C831.99 130.12 831.09 126.1 833.01 123.07L839.06 113.52L833.01 103.98C832.08 102.52 831.78 100.77 832.16 99.08C832.54 97.38 833.56 95.94 835.02 95.01C838.05 93.09 842.08 94 843.98 97.05L846.74 101.41L849.49 97.07L849.51 97.04C849.53 97.01 849.55 96.9825 849.57 96.955C849.59 96.9275 849.61 96.9 849.63 96.87C849.648 96.8435 849.665 96.8165 849.683 96.7893C849.746 96.6935 849.81 96.5957 849.88 96.51C849.919 96.4575 849.963 96.4094 850.005 96.3627C850.028 96.3382 850.049 96.3141 850.07 96.29L850.31 96.02C850.341 95.9886 850.373 95.96 850.403 95.9327C850.43 95.9077 850.456 95.8839 850.48 95.86C850.505 95.8349 850.53 95.8097 850.554 95.7847C850.627 95.7103 850.698 95.6374 850.78 95.57C850.808 95.5417 850.842 95.5183 850.873 95.4965C850.886 95.4875 850.898 95.4787 850.91 95.47C851.03 95.37 851.16 95.27 851.29 95.18L851.38 95.12C851.53 95.02 851.68 94.93 851.83 94.84C851.845 94.8247 851.866 94.8153 851.884 94.8072C851.89 94.8047 851.895 94.8024 851.9 94.8C851.945 94.7773 851.991 94.7537 852.037 94.73C852.152 94.6705 852.268 94.6101 852.39 94.56C852.43 94.55 852.47 94.54 852.51 94.52C852.67 94.45 852.82 94.39 852.98 94.34C853.1 94.3 853.24 94.26 853.37 94.23L853.58 94.17C853.642 94.1522 853.713 94.1423 853.777 94.1333L853.8 94.13C853.915 94.1035 854.037 94.0848 854.154 94.067C854.169 94.0647 854.185 94.0623 854.2 94.06C854.38 94.04 854.56 94.02 854.74 94.02H854.83C855.02 94.01 855.21 94.02 855.4 94.03L855.4 94.03H855.46C855.64 94.04 855.82 94.06 856 94.09C856.03 94.1 856.06 94.1 856.09 94.1C856.25 94.12 856.41 94.16 856.57 94.2L856.72 94.23C856.86 94.27 857 94.31 857.13 94.36C857.2 94.38 857.27 94.4 857.34 94.43C857.415 94.4551 857.487 94.4881 857.559 94.5215C857.602 94.5413 857.645 94.5614 857.69 94.58C857.73 94.6 857.77 94.6175 857.81 94.635C857.85 94.6525 857.89 94.67 857.93 94.69C858.08 94.77 858.23 94.86 858.38 94.95C858.41 94.97 858.45 94.99 858.49 95.01C859.95 95.94 860.97 97.39 861.35 99.08C861.73 100.77 861.43 102.51 860.5 103.98L854.6 113.28ZM847.34 124.73L850.36 129.49L850.35 129.48C851.97 132.04 855.38 132.8 857.94 131.18C860.5 129.56 861.26 126.15 859.64 123.59L853.84 114.45L853.54 113.98L853.25 113.52H840.23L846.74 123.79L847.04 124.26L847.34 124.73ZM833.86 123.6C832.24 126.16 833 129.57 835.56 131.19V131.2C838.12 132.83 841.53 132.06 843.15 129.5L846.17 124.74L839.66 114.46L833.86 123.6ZM846.17 102.32L843.15 97.56V97.55C841.53 94.99 838.12 94.23 835.56 95.85C833 97.48 832.23 100.88 833.86 103.44L839.66 112.6L839.71 112.68L846.19 102.35L846.17 102.32ZM850.39 97.54L850.37 97.56L850.34 97.53L850.3 97.6L847.34 102.32L847.05 102.79L846.76 103.26L840.96 112.51H853.89L859.63 103.42C860.42 102.18 860.68 100.7 860.36 99.27C860.04 97.84 859.18 96.62 857.94 95.83H857.93C857.66 95.66 857.37 95.52 857.07 95.4C856.98 95.36 856.89 95.33 856.79 95.3C856.56 95.22 856.33 95.16 856.1 95.11C856.055 95.105 856.013 95.095 855.97 95.085C855.928 95.075 855.885 95.065 855.84 95.06C855.54 95.02 855.24 95 854.94 95C854.85 95.01 854.77 95.02 854.68 95.02C854.45 95.04 854.21 95.07 853.98 95.11C853.94 95.12 853.9 95.1275 853.86 95.135C853.82 95.1425 853.78 95.15 853.74 95.16C853.46 95.23 853.19 95.32 852.92 95.43C852.83 95.46 852.75 95.5 852.67 95.54C852.44 95.65 852.22 95.77 852.01 95.91C851.997 95.918 851.983 95.926 851.968 95.9341C851.929 95.9567 851.887 95.9806 851.85 96.01C851.61 96.18 851.38 96.38 851.16 96.6C851.13 96.63 851.1 96.6625 851.07 96.695C851.04 96.7275 851.01 96.76 850.98 96.79C850.77 97.02 850.56 97.27 850.39 97.54Z" fill="white"/>
<path fill-rule="evenodd" clip-rule="evenodd" d="M1222.05 149.036C1222.48 149.338 1222.98 149.5 1223.5 149.5H1266C1266.52 149.5 1267.03 149.338 1267.45 149.036C1269.43 147.623 1268.43 144.5 1266 144.5H1223.5C1221.07 144.5 1220.07 147.623 1222.05 149.036ZM1223.5 148.5C1223.19 148.5 1222.89 148.403 1222.63 148.221C1221.45 147.374 1222.04 145.5 1223.5 145.5H1266C1267.46 145.5 1268.06 147.374 1266.87 148.221C1266.62 148.403 1266.31 148.5 1266 148.5H1223.5Z" fill="white"/>
<path fill-rule="evenodd" clip-rule="evenodd" d="M1243.75 63.5C1243.2 63.5 1242.75 63.9477 1242.75 64.5V145H1241.75V64.5C1241.75 63.3954 1242.65 62.5 1243.75 62.5C1244.86 62.5 1245.75 63.3954 1245.75 64.5V145H1244.75V64.5C1244.75 63.9477 1244.31 63.5 1243.75 63.5Z" fill="white"/>
<path fill-rule="evenodd" clip-rule="evenodd" d="M1268.99 30.8568L1290.55 46.6781L1289.96 47.4843L1268.4 31.663C1266.26 30.0907 1263.23 30.7075 1261.87 32.9919L1244.18 62.7559L1243.32 62.245L1261.01 32.481C1262.67 29.689 1266.37 28.9351 1268.99 30.8568Z" fill="white"/>
<path fill-rule="evenodd" clip-rule="evenodd" d="M1284.02 56.619C1282.22 62.0247 1281.79 69.1225 1283.11 76.6966C1283.25 77.4945 1284.04 78.0164 1284.85 77.8433L1312.95 71.871C1313.77 71.6979 1314.27 70.9012 1314.07 70.1156C1312.2 62.6582 1308.92 56.3501 1305.08 52.1409C1301.24 47.9197 1296.91 45.8876 1292.93 46.7354C1288.94 47.5832 1285.81 51.1978 1284.02 56.619ZM1283.07 56.3043C1284.92 50.7269 1288.23 46.7114 1292.72 45.7573C1297.21 44.8031 1301.86 47.1245 1305.82 51.4673C1309.79 55.8223 1313.14 62.2889 1315.04 69.8722C1315.39 71.2293 1314.51 72.563 1313.16 72.8492L1285.06 78.8214C1283.72 79.1076 1282.37 78.2471 1282.13 76.8687C1280.78 69.1667 1281.21 61.8972 1283.07 56.3043Z" fill="white"/>
<path fill-rule="evenodd" clip-rule="evenodd" d="M1301.08 81.7019C1297.66 82.4277 1294.31 80.248 1293.58 76.8334L1292.6 77.0413C1293.44 80.9961 1297.33 83.5207 1301.29 82.6801C1305.24 81.8394 1307.77 77.952 1306.92 73.9972L1305.95 74.2051C1306.67 77.6197 1304.49 80.9761 1301.08 81.7019Z" fill="white"/>
<path fill-rule="evenodd" clip-rule="evenodd" d="M1280.79 89.4841L1286.54 83.5655L1287.26 84.2623L1281.51 90.1809L1280.79 89.4841Z" fill="white"/>
<path fill-rule="evenodd" clip-rule="evenodd" d="M1323.56 81.1687L1316.01 77.8359L1315.61 78.7507L1323.16 82.0835L1323.56 81.1687Z" fill="white"/>
<path fill-rule="evenodd" clip-rule="evenodd" d="M1293.5 96.8099L1293.58 90.3372L1294.47 90.3239L1294.38 96.7967L1293.5 96.8099Z" fill="white"/>
<path fill-rule="evenodd" clip-rule="evenodd" d="M1314.53 92.7211L1312.03 86.751L1311.2 87.0705L1313.7 93.0406L1314.53 92.7211Z" fill="white"/>
</svg>
